<svg id="Layer_2" data-name="Layer 2" xmlns="http://www.w3.org/2000/svg" width="311.966" height="473.5641" viewBox="0 0 311.966 473.5641"><defs><style>.cls-1{fill:#0c78b3;}.cls-2{fill:#84bdd9;}.cls-3{fill:#83bad9;}.cls-4{fill:#80d0d9;}.cls-5{fill:#aee1e8;}</style></defs><title>favicon</title><path class="cls-1" d="M290.3138,297.1192c-3.5-23.5-13.38-46.1-25.48-68.14-12.12-22.05-26.46-43.54-38.9-64.84,0,0-7.51-12.84-10.01-17.13q-4.605-7.89-8.41-16.2a492.8,492.8,0,0,1-23.14-53.98c-5.9137-16.4827-10.63-32.3273-15.9035-50.0946-.0277.0751-.06.1482-.09.2224l-.0561.2123c-.0035.0079-.0015.0173-.0056.0251l-.0018.0027-.0032.0121v.02l-3.48,13.94a374.5014,374.5014,0,0,1-42.5,102.33c-3.07,5.1-6.38,10.57-10.02,16.62-27.07,45.09-34.64,59.75-60,106,4.14,3.84,8.53,8.13,13.19,12.69,4.66,4.57,9.59,9.4,14.81,14.31,37,30,76.1,48.29,118,64,22,7,36.88,8.7,55.67,6.95,7.24-.68,13.95-2.14,18.33-4.95C298.2838,342.4292,290.7538,299.4992,290.3138,297.1192Zm-45.5,49a15.5,15.5,0,1,1,15.5-15.5A15.5005,15.5005,0,0,1,244.8138,346.1192Zm15.5-61c-.94,6.11-2.76,9.35-5.05,11.48a13.5886,13.5886,0,0,1-19.8-1.72,1.846,1.846,0,0,0-.13-.16,21.9831,21.9831,0,0,1-4.56-10.91c-1.58-12.68-2.19-17.42-3.46-23.69-6.57-32.33-38.49-124.65-39.95-128.85-.01-.02.02-.04.04-.02,2.37,3.63,53.29,81.69,64.91,110.87C256.3938,252.3692,263.4538,274.5392,260.3138,285.1192Z" transform="translate(-20.5979 -26.4891)"/><path class="cls-2" d="M291.2991,309.3708c-.248-4.5445-.6509-9.6972-.98-12.8079-2.5-23.6273-13.38-46.1-25.48-68.14-12.12-22.05-26.46-43.54-38.9-64.84,0,0-7.51-12.84-10.01-17.13q-4.605-7.89-8.41-16.2a492.7831,492.7831,0,0,1-23.14-53.98c-4.3131-12.0215-9.22-27.5881-15.8109-49.7838-.0053.01-.004.0222-.01.0321l-.0126.0277c-.0606.1524-.12.3054-.1842.4561a.3727.3727,0,0,1-.0265.1183c.1889,10.2365,1.906,102.2553,3.9845,134.05.89,13.63,4.13,40.76,5.5,54.34,1.66,16.41,4.0934,40.8566,11.5,69.66,4.5,17.5,13.5,39.5,26,52,12,15,29.6,17.43,40,15,7.77-1.81,19.79-6.3,27-16a50.6074,50.6074,0,0,0,7.3155-14.343A33.4668,33.4668,0,0,0,291.2991,309.3708Zm-46.48,36.8021a15.5,15.5,0,1,1,15.5-15.5A15.5005,15.5005,0,0,1,244.8191,346.1729Zm15.5-61c-.94,6.11-2.76,9.35-5.05,11.48a13.5889,13.5889,0,0,1-19.8-1.72,1.8328,1.8328,0,0,0-.13-.16,21.9823,21.9823,0,0,1-4.56-10.91c-1.58-12.68-2.19-17.42-3.46-23.69-6.57-32.33-38.49-124.65-39.95-128.85-.01-.02.02-.04.04-.02,2.37,3.63,53.29,81.69,64.91,110.87C256.3992,252.4229,263.4592,274.5929,260.3191,285.1729Z" transform="translate(-20.5979 -26.4891)"/><path class="cls-3" d="M324.8038,338.9732a89.15,89.15,0,0,1-18.24,28.08,365.3947,365.3947,0,0,0,6.74-43,115.9069,115.9069,0,0,0-9.72-57.2c-13.38-29.92-26.6-45.32-27.01-45.79.59.41,22.15,15.6,40.56,43.37A80.4257,80.4257,0,0,1,324.8038,338.9732Z" transform="translate(-20.5979 -26.4891)"/><path class="cls-4" d="M332.5638,365.0532s-4,115-138,120c-109-8-145-105-145-105s.5,42.5,34,76c27,31,73,44,73,44s-118-6-134-126c-8-72,11-116,11-116a.0306.0306,0,0,0,.01.02c1.07,1.55,70.01,101.25,198.94,136.02a125.43,125.43,0,0,0,38.61,4.06C319.9538,395.4532,332.5638,365.0532,332.5638,365.0532Z" transform="translate(-20.5979 -26.4891)"/><path class="cls-5" d="M332.3838,365.3132s-1.21,34.78-24.59,66.92c-.73,1.32-39.73,6.32-106.73-14.68-137.941-43.2352-166.53-156.52-167.49-158.48l-.18-.74c1.07,1.55,70.01,101.25,198.94,136.02a125.43,125.43,0,0,0,38.61,4.06C319.7739,395.7132,332.3838,365.3132,332.3838,365.3132Z" transform="translate(-20.5979 -26.4891)"/></svg>