<svg xmlns="http://www.w3.org/2000/svg" xmlns:xlink="http://www.w3.org/1999/xlink" width="340.914" height="53.999" viewBox="0 0 340.914 53.999"><defs><style>.cls-1{fill:#0c78b3;}.cls-2{fill:#84bdd9;}.cls-3{fill:#83bad9;}.cls-4{fill:#80d0d9;}.cls-5{fill:#aee1e8;}.cls-6{fill:url(#linear-gradient);}.cls-7{fill:url(#linear-gradient-2);}.cls-8{fill:url(#linear-gradient-3);}.cls-9{fill:url(#linear-gradient-4);}.cls-10{fill:url(#linear-gradient-5);}.cls-11{fill:url(#linear-gradient-6);}.cls-12{fill:url(#linear-gradient-7);}.cls-13{fill:url(#linear-gradient-8);}.cls-14{fill:url(#linear-gradient-9);}.cls-15{fill:url(#linear-gradient-10);}.cls-16{fill:url(#linear-gradient-11);}.cls-17{fill:url(#linear-gradient-12);}.cls-18{fill:url(#linear-gradient-13);}.cls-19{fill:url(#linear-gradient-14);}.cls-20{fill:url(#linear-gradient-15);}.cls-21{fill:url(#linear-gradient-16);}.cls-22{fill:url(#linear-gradient-17);}.cls-23{fill:url(#linear-gradient-18);}.cls-24{fill:url(#linear-gradient-19);}.cls-25{fill:url(#linear-gradient-20);}.cls-26{fill:url(#linear-gradient-21);}.cls-27{fill:url(#linear-gradient-22);}.cls-28{fill:url(#linear-gradient-23);}.cls-29{fill:url(#linear-gradient-24);}.cls-30{fill:url(#linear-gradient-25);}.cls-31{fill:url(#linear-gradient-26);}.cls-32{fill:url(#linear-gradient-27);}.cls-33{fill:url(#linear-gradient-28);}.cls-34{fill:url(#linear-gradient-29);}.cls-35{fill:url(#linear-gradient-30);}.cls-36{fill:url(#linear-gradient-31);}.cls-37{fill:url(#linear-gradient-32);}.cls-38{fill:url(#linear-gradient-33);}.cls-39{fill:url(#linear-gradient-34);}.cls-40{fill:url(#linear-gradient-35);}.cls-41{fill:url(#linear-gradient-36);}.cls-42{fill:url(#linear-gradient-37);}.cls-43{fill:url(#linear-gradient-38);}.cls-44{fill:url(#linear-gradient-39);}.cls-45{fill:url(#linear-gradient-40);}.cls-46{fill:url(#linear-gradient-41);}.cls-47{fill:url(#linear-gradient-42);}.cls-48{fill:url(#linear-gradient-43);}.cls-49{fill:url(#linear-gradient-44);}.cls-50{fill:url(#linear-gradient-45);}.cls-51{fill:url(#linear-gradient-46);}.cls-52{fill:url(#linear-gradient-47);}.cls-53{fill:url(#linear-gradient-48);}.cls-54{fill:url(#linear-gradient-49);}.cls-55{fill:url(#linear-gradient-50);}.cls-56{fill:url(#linear-gradient-51);}.cls-57{fill:url(#linear-gradient-52);}.cls-58{fill:url(#linear-gradient-53);}.cls-59{fill:url(#linear-gradient-54);}.cls-60{fill:url(#linear-gradient-55);}.cls-61{fill:url(#linear-gradient-56);}.cls-62{fill:url(#linear-gradient-57);}.cls-63{fill:url(#linear-gradient-58);}.cls-64{fill:url(#linear-gradient-59);}.cls-65{fill:#fff;}.cls-66{fill:url(#linear-gradient-60);}.cls-67{fill:url(#linear-gradient-61);}.cls-68{fill:url(#linear-gradient-62);}.cls-69{fill:url(#linear-gradient-63);}.cls-70{fill:url(#linear-gradient-64);}.cls-71{fill:url(#linear-gradient-65);}.cls-72{fill:url(#linear-gradient-66);}.cls-73{fill:url(#linear-gradient-67);}</style><linearGradient id="linear-gradient" x1="111.55" y1="32.5178" x2="112.05" y2="32.5178" gradientUnits="userSpaceOnUse"><stop offset="0.1055"/><stop offset="0.2027" stop-color="#030505"/><stop offset="0.3248" stop-color="#0d1215"/><stop offset="0.4602" stop-color="#1c292f"/><stop offset="0.6052" stop-color="#324852"/><stop offset="0.758" stop-color="#4e7080"/><stop offset="0.9148" stop-color="#70a0b8"/><stop offset="1" stop-color="#84bdd9"/></linearGradient><linearGradient id="linear-gradient-2" x1="111.55" y1="26.235" x2="112.05" y2="26.235" xlink:href="#linear-gradient"/><linearGradient id="linear-gradient-3" x1="111.55" y1="29.446" x2="112.05" y2="29.446" xlink:href="#linear-gradient"/><linearGradient id="linear-gradient-4" x1="111.55" y1="32.6498" x2="112.05" y2="32.6498" xlink:href="#linear-gradient"/><linearGradient id="linear-gradient-5" x1="111.55" y1="26.2341" x2="112.05" y2="26.2341" xlink:href="#linear-gradient"/><linearGradient id="linear-gradient-6" x1="111.55" y1="29.4466" x2="112.05" y2="29.4466" xlink:href="#linear-gradient"/><linearGradient id="linear-gradient-7" x1="111.55" y1="32.6511" x2="112.05" y2="32.6511" xlink:href="#linear-gradient"/><linearGradient id="linear-gradient-8" x1="111.55" y1="19.9567" x2="112.05" y2="19.9567" xlink:href="#linear-gradient"/><linearGradient id="linear-gradient-9" x1="111.55" y1="19.9521" x2="112.05" y2="19.9521" xlink:href="#linear-gradient"/><linearGradient id="linear-gradient-10" x1="111.55" y1="32.5258" x2="112.05" y2="32.5258" xlink:href="#linear-gradient"/><linearGradient id="linear-gradient-11" x1="111.55" y1="30.2632" x2="112.05" y2="30.2632" xlink:href="#linear-gradient"/><linearGradient id="linear-gradient-12" x1="111.55" y1="18.8434" x2="112.05" y2="18.8434" xlink:href="#linear-gradient"/><linearGradient id="linear-gradient-13" x1="111.55" y1="35.0964" x2="112.05" y2="35.0964" xlink:href="#linear-gradient"/><linearGradient id="linear-gradient-14" x1="111.55" y1="30.4065" x2="112.05" y2="30.4065" xlink:href="#linear-gradient"/><linearGradient id="linear-gradient-15" x1="111.55" y1="30.4069" x2="112.05" y2="30.4069" xlink:href="#linear-gradient"/><linearGradient id="linear-gradient-16" x1="111.55" y1="34.1351" x2="112.05" y2="34.1351" xlink:href="#linear-gradient"/><linearGradient id="linear-gradient-17" x1="111.55" y1="19.8077" x2="112.05" y2="19.8077" xlink:href="#linear-gradient"/><linearGradient id="linear-gradient-18" x1="111.55" y1="32.3938" x2="112.05" y2="32.3938" xlink:href="#linear-gradient"/><linearGradient id="linear-gradient-19" x1="111.55" y1="19.9471" x2="112.05" y2="19.9471" xlink:href="#linear-gradient"/><linearGradient id="linear-gradient-20" x1="68.754" y1="25.1028" x2="68.754" y2="8.5163" gradientUnits="userSpaceOnUse"><stop offset="0" stop-color="#84bdd9"/><stop offset="0.1592" stop-color="#6f9fb7"/><stop offset="0.5123" stop-color="#3a5460"/><stop offset="0.8794"/></linearGradient><linearGradient id="linear-gradient-21" x1="68.5801" y1="45.961" x2="68.5801" y2="30.9191" xlink:href="#linear-gradient-20"/><linearGradient id="linear-gradient-22" x1="85.3443" y1="45.9664" x2="85.3443" y2="8.5099" xlink:href="#linear-gradient-20"/><linearGradient id="linear-gradient-23" x1="101.2192" y1="24.3088" x2="101.2192" y2="8.773" xlink:href="#linear-gradient-20"/><linearGradient id="linear-gradient-24" x1="120.6547" y1="28.0617" x2="120.6547" y2="8.7651" xlink:href="#linear-gradient-20"/><linearGradient id="linear-gradient-25" x1="116.7144" y1="31.1577" x2="116.7144" y2="24.4067" xlink:href="#linear-gradient-20"/><linearGradient id="linear-gradient-26" x1="113.494" y1="34.246" x2="113.494" y2="27.7355" xlink:href="#linear-gradient-20"/><linearGradient id="linear-gradient-27" x1="110.2447" y1="46.2254" x2="110.2447" y2="31.0562" xlink:href="#linear-gradient-20"/><linearGradient id="linear-gradient-28" x1="134.7246" y1="37.2056" x2="134.7246" y2="17.9017" xlink:href="#linear-gradient-20"/><linearGradient id="linear-gradient-29" x1="148.9519" y1="43.0269" x2="148.9519" y2="8.4862" xlink:href="#linear-gradient-20"/><linearGradient id="linear-gradient-30" x1="147.3652" y1="45.9868" x2="147.3652" y2="40.4955" xlink:href="#linear-gradient-20"/><linearGradient id="linear-gradient-31" x1="165.2528" y1="25.0976" x2="165.2528" y2="17.8956" xlink:href="#linear-gradient-20"/><linearGradient id="linear-gradient-32" x1="179.9959" y1="31.9468" x2="179.9959" y2="8.4738" xlink:href="#linear-gradient-20"/><linearGradient id="linear-gradient-33" x1="177.0282" y1="33.4926" x2="177.0282" y2="28.5797" xlink:href="#linear-gradient-20"/><linearGradient id="linear-gradient-34" x1="165.0779" y1="45.9925" x2="165.0779" y2="30.9246" xlink:href="#linear-gradient-20"/><linearGradient id="linear-gradient-35" x1="179.9656" y1="45.9974" x2="179.9656" y2="30.2423" xlink:href="#linear-gradient-20"/><linearGradient id="linear-gradient-36" x1="320.1191" y1="28.6899" x2="320.1191" y2="16.7401" xlink:href="#linear-gradient-20"/><linearGradient id="linear-gradient-37" x1="305.3292" y1="46.0383" x2="305.3292" y2="8.4259" xlink:href="#linear-gradient-20"/><linearGradient id="linear-gradient-38" x1="289.067" y1="20.9506" x2="289.067" y2="8.4313" xlink:href="#linear-gradient-20"/><linearGradient id="linear-gradient-39" x1="282.5954" y1="35.6806" x2="282.5954" y2="28.7249" xlink:href="#linear-gradient-20"/><linearGradient id="linear-gradient-40" x1="291.2494" y1="46.0338" x2="291.2494" y2="28.725" xlink:href="#linear-gradient-20"/><linearGradient id="linear-gradient-41" x1="270.0834" y1="46.0269" x2="270.0834" y2="8.4394" xlink:href="#linear-gradient-20"/><linearGradient id="linear-gradient-42" x1="240.0045" y1="34.001" x2="240.0045" y2="8.4509" xlink:href="#linear-gradient-20"/><linearGradient id="linear-gradient-43" x1="255.8637" y1="37.3598" x2="255.8637" y2="30.7858" xlink:href="#linear-gradient-20"/><linearGradient id="linear-gradient-44" x1="240.0352" y1="46.017" x2="240.0352" y2="34.3942" xlink:href="#linear-gradient-20"/><linearGradient id="linear-gradient-45" x1="194.1753" y1="37.4664" x2="194.1753" y2="17.8899" xlink:href="#linear-gradient-20"/><linearGradient id="linear-gradient-46" x1="62.9338" y1="45.961" x2="62.9338" y2="43.6519" gradientUnits="userSpaceOnUse"><stop offset="0.0033" stop-color="#84bdd9"/><stop offset="0.562" stop-color="#84bdd9"/><stop offset="0.628" stop-color="#82b7d1"/><stop offset="0.7309" stop-color="#7ca6bb"/><stop offset="0.8579" stop-color="#738b97"/><stop offset="1" stop-color="#666"/></linearGradient><linearGradient id="linear-gradient-47" x1="79.6285" y1="45.9664" x2="79.6285" y2="43.657" xlink:href="#linear-gradient-46"/><linearGradient id="linear-gradient-48" x1="104.2658" y1="46.2254" x2="104.2658" y2="43.9341" xlink:href="#linear-gradient-46"/><linearGradient id="linear-gradient-49" x1="148.8548" y1="43.0269" x2="148.8548" y2="40.4955" xlink:href="#linear-gradient-46"/><linearGradient id="linear-gradient-50" x1="134.9592" y1="45.9868" x2="134.9592" y2="43.6721" xlink:href="#linear-gradient-46"/><linearGradient id="linear-gradient-51" x1="159.3066" y1="45.9925" x2="159.3066" y2="43.6814" xlink:href="#linear-gradient-46"/><linearGradient id="linear-gradient-52" x1="174.1952" y1="45.9974" x2="174.1952" y2="43.6859" xlink:href="#linear-gradient-46"/><linearGradient id="linear-gradient-53" x1="311.2049" y1="46.042" x2="311.2049" y2="43.7278" xlink:href="#linear-gradient-46"/><linearGradient id="linear-gradient-54" x1="275.784" y1="46.0304" x2="275.784" y2="43.717" xlink:href="#linear-gradient-46"/><linearGradient id="linear-gradient-55" x1="296.7738" y1="46.0372" x2="296.7738" y2="43.7234" xlink:href="#linear-gradient-46"/><linearGradient id="linear-gradient-56" x1="253.9676" y1="46.0258" x2="253.9676" y2="43.7078" xlink:href="#linear-gradient-46"/><linearGradient id="linear-gradient-57" x1="185.3192" y1="41.9909" x2="185.3192" y2="39.3795" xlink:href="#linear-gradient-46"/><linearGradient id="linear-gradient-58" x1="213.0783" y1="41.9979" x2="213.0783" y2="39.3856" xlink:href="#linear-gradient-46"/><linearGradient id="linear-gradient-59" x1="198.7256" y1="46.0075" x2="198.7256" y2="43.6916" xlink:href="#linear-gradient-46"/><linearGradient id="linear-gradient-60" x1="321.7039" y1="44.4439" x2="321.7039" y2="11.1292" gradientUnits="userSpaceOnUse"><stop offset="0" stop-color="#aee1e8"/><stop offset="0.0844" stop-color="#a4dde5"/><stop offset="0.2257" stop-color="#8ad4dc"/><stop offset="0.2739" stop-color="#80d0d9"/><stop offset="0.4846" stop-color="#84bfd9"/><stop offset="0.5017" stop-color="#84bdd9"/><stop offset="0.751" stop-color="#328ebf"/><stop offset="0.8794" stop-color="#0c78b3"/></linearGradient><linearGradient id="linear-gradient-61" x1="254.0129" y1="43.7154" x2="254.0129" y2="10.4406" xlink:href="#linear-gradient-60"/><linearGradient id="linear-gradient-62" x1="287.7005" y1="43.7261" x2="287.7005" y2="10.4272" xlink:href="#linear-gradient-60"/><linearGradient id="linear-gradient-63" x1="65.5571" y1="43.6597" x2="65.5571" y2="10.5099" xlink:href="#linear-gradient-60"/><linearGradient id="linear-gradient-64" x1="198.2505" y1="44.4115" x2="198.2505" y2="11.1752" xlink:href="#linear-gradient-60"/><linearGradient id="linear-gradient-65" x1="133.722" y1="44.392" x2="133.722" y2="11.1995" xlink:href="#linear-gradient-60"/><linearGradient id="linear-gradient-66" x1="99.7867" y1="43.9371" x2="99.7867" y2="10.7651" xlink:href="#linear-gradient-60"/><linearGradient id="linear-gradient-67" x1="164.8092" y1="44.402" x2="164.8092" y2="11.187" xlink:href="#linear-gradient-60"/></defs><title>logo</title><g id="Logo"><path d="M36.2815,36.6651c.0308-.0715.0648-.1363.0945-.21a10.4781,10.4781,0,0,0-.9961-9.7266,20.6707,20.6707,0,0,0-4.7871-5.1016,1.93,1.93,0,0,0-1.6551-.2993c-.4855-.8169-.9781-1.6254-1.466-2.4145-.5674-.917-1.1309-1.8272-1.6612-2.7364l-1.0556-1.8066a17.7053,17.7053,0,0,1-.8242-1.5928,50.1329,50.1329,0,0,1-2.3516-5.4853c-.4238-1.1807-.9277-2.7686-1.6348-5.1494a1.9993,1.9993,0,0,0-1.916-1.43,1.9456,1.9456,0,0,0-.29.0214,2.0009,2.0009,0,0,0-1.5742,1.2471c-.0113.0274-.0372.0957-.04.1035a1.8527,1.8527,0,0,0-.0688.2315c-.0025.0117-.3638,1.46-.3638,1.46a37.5269,37.5269,0,0,1-4.26,10.2579l-1.06,1.7568c-2.438,4.0615-3.38,5.7842-5.2559,9.2168l-.2736.5a2.0223,2.0223,0,0,0-.6712-.288,1.9852,1.9852,0,0,0-.3985-.041,2.0325,2.0325,0,0,0-1.894,1.3291c-.3213.8076-2.0835,5.6709-1.25,13.165,1.51,11.3252,11.145,14.7881,16.0288,15.0362q.0513.0028.1026.0029a1.999,1.999,0,0,0,1.97-1.6719c.0078-.0459.0136-.0908.0175-.1367q.9067.1465,1.877.22c.0488.003.1963.0049.2207.0039,7.3887-.2754,11.3623-3.5449,13.4072-6.2851.0274-.0323.08-.1.08-.1.0469-.0625.3438-.4952.44-.6407.0039-.0058.1406-.22.1406-.22.1221-.1953.2392-.3887.3887-.65a16.1625,16.1625,0,0,0,2.039-6.7A2.0436,2.0436,0,0,0,36.2815,36.6651Zm-6.22,2.85a5.7786,5.7786,0,0,0,.5982-.4439,1.9772,1.9772,0,0,0,.1771.5144,8.14,8.14,0,0,1-1.5681.3136A4.4293,4.4293,0,0,0,30.0615,39.515Z" transform="translate(-0.4074 -0.7133)"/><path class="cls-1" d="M31.36,31.2858a21.906,21.906,0,0,0-2.69-7.1943c-1.28-2.3281-2.7937-4.5971-4.1071-6.846,0,0-.793-1.3557-1.0569-1.8086q-.4863-.8331-.888-1.71a52.0362,52.0362,0,0,1-2.4431-5.6993c-.6244-1.74-1.1224-3.4132-1.6792-5.2891l-.01.0235-.0059.0224-.0006.0026,0,0,0,.0013V2.79L18.111,4.262a39.5387,39.5387,0,0,1-4.4873,10.8043c-.3241.5385-.6736,1.116-1.0579,1.7548C9.7077,21.5818,8.9084,23.13,6.2309,28.0128c.4371.4054.9006.8584,1.3926,1.34s1.0125.9925,1.5637,1.5109a42.8562,42.8562,0,0,0,12.4587,6.7573,13.4923,13.4923,0,0,0,5.8777.7338,4.55,4.55,0,0,0,1.9354-.5227C32.2009,36.07,31.4059,31.5371,31.36,31.2858Zm-4.804,5.1736a1.6366,1.6366,0,1,1,1.6365-1.6366A1.6367,1.6367,0,0,1,26.5555,36.4594Zm1.6365-6.4405a1.9434,1.9434,0,0,1-.5332,1.212,1.4346,1.4346,0,0,1-2.09-.1816l-.0138-.0169a2.3205,2.3205,0,0,1-.4814-1.1519c-.1668-1.3387-.2312-1.8392-.3653-2.5012-.6937-3.4135-4.0639-13.1608-4.218-13.6043l.0042-.0021c.25.3833,5.6265,8.625,6.8533,11.7059C27.7781,26.561,28.5235,28.9018,28.192,30.0189Z" transform="translate(-0.4074 -0.7133)"/><path class="cls-2" d="M31.4635,32.5794c-.0262-.48-.0687-1.0239-.1035-1.3523a19.69,19.69,0,0,0-2.69-7.1944c-1.28-2.3281-2.7937-4.597-4.1072-6.8459,0,0-.7929-1.3557-1.0569-1.8087q-.4862-.8329-.8879-1.71a52.0386,52.0386,0,0,1-2.4432-5.6993c-.4554-1.2693-.9735-2.9128-1.6693-5.2563l-.0011.0034-.0013.0029-.02.0481a.04.04,0,0,1-.0028.0125c.02,1.0808.2012,10.7964.4207,14.1533.094,1.4391.4361,4.3035.5807,5.7373a47.1871,47.1871,0,0,0,1.2142,7.3549,12.8514,12.8514,0,0,0,2.7451,5.49,4.3255,4.3255,0,0,0,4.2233,1.5837,5.0079,5.0079,0,0,0,2.8508-1.6893,5.3448,5.3448,0,0,0,.7723-1.5143A3.5326,3.5326,0,0,0,31.4635,32.5794ZM26.556,36.465a1.6365,1.6365,0,1,1,1.6365-1.6365A1.6365,1.6365,0,0,1,26.556,36.465Zm1.6365-6.4405a1.9437,1.9437,0,0,1-.5331,1.2121,1.4348,1.4348,0,0,1-2.0906-.1816l-.0137-.0169a2.321,2.321,0,0,1-.4815-1.1519c-.1668-1.3388-.2312-1.8392-.3653-2.5012-.6936-3.4135-4.0638-13.1609-4.218-13.6043l.0042-.0021c.25.3832,5.6265,8.625,6.8534,11.7059C27.7787,26.5667,28.5241,28.9075,28.1925,30.0245Z" transform="translate(-0.4074 -0.7133)"/><path class="cls-3" d="M35.001,35.7049A9.4116,9.4116,0,0,1,33.0752,38.67a38.5842,38.5842,0,0,0,.7116-4.54A12.237,12.237,0,0,0,32.7605,28.09a21.0232,21.0232,0,0,0-2.8517-4.8346,18.4243,18.4243,0,0,1,4.2824,4.5791A8.4917,8.4917,0,0,1,35.001,35.7049Z" transform="translate(-0.4074 -0.7133)"/><path class="cls-4" d="M35.82,38.4585S35.398,50.6,21.25,51.1283C9.7415,50.2837,5.9405,40.0422,5.9405,40.0422a12.5989,12.5989,0,0,0,3.59,8.0243c2.8507,3.273,7.7075,4.6456,7.7075,4.6456S4.7791,52.0786,3.09,39.4087c-.8447-7.6019,1.1614-12.2475,1.1614-12.2475l.001.0021A40.0385,40.0385,0,0,0,25.2568,41.5246a13.2422,13.2422,0,0,0,4.0765.4286C34.4889,41.6682,35.82,38.4585,35.82,38.4585Z" transform="translate(-0.4074 -0.7133)"/><path class="cls-5" d="M35.8013,38.4859a14.1047,14.1047,0,0,1-2.5963,7.0656c-.077.1394-4.1948.6673-11.2688-1.55C7.3721,39.4367,4.3536,27.4758,4.2522,27.2688l-.019-.0781A40.0379,40.0379,0,0,0,25.2378,41.552a13.2423,13.2423,0,0,0,4.0765.4287C34.47,41.6956,35.8013,38.4859,35.8013,38.4859Z" transform="translate(-0.4074 -0.7133)"/></g><g id="Hydro"><path d="M219.17,10.9437a4.9993,4.9993,0,0,0-2.8506-1.416,5,5,0,0,0-4.958-4.3525l-24.4121.0088a4.9774,4.9774,0,0,0-3.8137,1.7876,4.9943,4.9943,0,0,0-3.821-1.7847l-26.8956.01a4.9824,4.9824,0,0,0-3.41,1.3447A4.9971,4.9971,0,0,0,145.6006,5.2l-24.7539.0088a4.9744,4.9744,0,0,0-1.9287.3867,5.0038,5.0038,0,0,0-1.0742-.1172l-11.4727.0049A5.0008,5.0008,0,0,0,101.96,8.13L98.6592,6.181a5.0029,5.0029,0,0,0-2.542-.6943l-11.4629.0039a4.997,4.997,0,0,0-1.2754.165,4.9862,4.9862,0,0,0-2.0332-.4326l-11.1875.0039a4.9786,4.9786,0,0,0-2.9326.9512l-1.0479-.4853A5.0077,5.0077,0,0,0,64.0762,5.23l-11.1807.0039a5,5,0,0,0-4.998,4.9551L47.583,45.3207a5,5,0,0,0,3.9834,4.94L62.665,52.5658A4.9942,4.9942,0,0,0,63.68,52.67l10.42.0039a4.9789,4.9789,0,0,0,2.417-.6221l2.1172.4932a4.9672,4.9672,0,0,0,1.1328.1309l10.4258.0039a4.99,4.99,0,0,0,4.0537-2.0733l7.6055,2.1406a4.9871,4.9871,0,0,0,1.3525.1875l11.0615.004a5.0024,5.0024,0,0,0,4.5449-2.9122c.0479.02,6.48,2.3633,6.48,2.3633a5.0012,5.0012,0,0,0,1.709.3018l23.0645.0078a4.9792,4.9792,0,0,0,3.1093-1.084l.7989.4483a5.0094,5.0094,0,0,0,2.4453.6386l10.706.003a4.9935,4.9935,0,0,0,1.8184-.3409,5.008,5.008,0,0,0,1.8193.3428l10.7129.0029a4.98,4.98,0,0,0,3.5576-1.4921,4.999,4.999,0,0,0,3.5547,1.4951l22.7422.0078a5.0017,5.0017,0,0,0,4.9189-4.0987,5.0019,5.0019,0,0,0,4.0206-4.2763l.3339-2.6114a5.1257,5.1257,0,0,0,.04-.6357L220.6357,14.48A4.9989,4.9989,0,0,0,219.17,10.9437Z" transform="translate(-0.4074 -0.7133)"/><path d="M341.1426,10.0941a5,5,0,0,0-5-4.9648l-27.0547.01a4.9963,4.9963,0,0,0-1.8272.3467,4.98,4.98,0,0,0-1.8271-.3447l-10.9668.0039a4.9965,4.9965,0,0,0-3.1563,1.124l-2.7246,2.22a5.0015,5.0015,0,0,0-4.7177-3.34l-11.2735.0039a4.9852,4.9852,0,0,0-1.665.2862,5,5,0,0,0-1.669-.2852l-27.7968.0107a5,5,0,0,0-4.56,2.9522l-2.1465,4.78a5.0047,5.0047,0,0,0-.4385,2.0556l.0332,20.77a4.9928,4.9928,0,0,0,.292,1.6806,4.996,4.996,0,0,0-.2861,1.6758l.0137,8.6592A4.9994,4.9994,0,0,0,239.37,52.73l25.8916.0088a5.003,5.003,0,0,0,1.5479-.2461,4.9794,4.9794,0,0,0,1.5576.248l10.5.0029a4.9989,4.9989,0,0,0,2.0469-.4384l3.7382-1.6768a4.9915,4.9915,0,0,0,4.086,2.1191l10.2138.003a4.99,4.99,0,0,0,1.6358-.2754l.0635-.0215a4.9989,4.9989,0,0,0,1.7031.2979l10.7666.0039a4.9813,4.9813,0,0,0,1.4287-.209l7.7471-2.3106a5,5,0,0,0,3.5713-4.8222l-.0137-2.0909h1.6338a4.9991,4.9991,0,0,0,1.62-.27l8.833-3.0244a5,5,0,0,0,3.38-4.7656Z" transform="translate(-0.4074 -0.7133)"/><polygon class="cls-6" points="63.483 30.919 73.784 34.116 79.449 34.116 69.574 30.919 63.483 30.919"/><polygon class="cls-7" points="96.741 28.062 88.169 24.408 84.137 24.409 92.991 28.062 96.741 28.062"/><polygon class="cls-8" points="99.805 31.156 91.462 27.736 88.146 27.736 96.721 31.156 99.805 31.156"/><polygon class="cls-9" points="91.44 31.055 99.786 34.244 102.871 34.244 94.758 31.055 91.44 31.055"/><polygon class="cls-10" points="113.317 24.407 120.13 28.062 123.884 28.062 117.354 24.406 113.317 24.407"/><polygon class="cls-11" points="109.98 27.735 117.027 31.157 120.114 31.158 113.299 27.735 109.98 27.735"/><polygon class="cls-12" points="106.642 31.056 113.924 34.246 117.011 34.246 109.961 31.056 106.642 31.056"/><polygon class="cls-13" points="132.01 17.902 137.512 22.013 141.893 22.012 136.721 17.901 132.01 17.902"/><polygon class="cls-14" points="170.285 22.009 167.252 17.895 163.613 17.896 166.901 22.009 170.285 22.009"/><polygon class="cls-15" points="163.444 30.925 166.746 34.127 170.383 34.127 167.355 30.925 163.444 30.925"/><polygon class="cls-16" points="175.813 28.58 178.247 31.947 181.09 31.947 178.871 28.58 175.813 28.58"/><polygon class="cls-17" points="324.088 16.74 320.428 16.741 312.695 20.947 316.097 20.946 324.088 16.74"/><polygon class="cls-18" points="320.397 33.583 312.659 36.607 327.081 36.61 335.914 33.585 320.397 33.583"/><polygon class="cls-19" points="283.545 28.725 278.406 32.088 279.959 32.088 285.216 28.725 283.545 28.725"/><polygon class="cls-20" points="286.423 32.089 288.271 32.089 294.157 28.725 292.17 28.725 286.423 32.089"/><polygon class="cls-21" points="279.973 35.681 286.439 35.682 292.188 32.589 285.232 32.589 279.973 35.681"/><polygon class="cls-22" points="249.524 21.875 264.78 21.873 268.884 17.741 252.475 17.744 249.524 21.875"/><polygon class="cls-23" points="238.945 34.001 254.205 34.003 257.512 30.786 241.097 30.785 238.945 34.001"/><polygon class="cls-24" points="193.591 17.89 194.776 22.006 204.311 22.005 203.845 17.888 193.591 17.89"/><polygon class="cls-25" points="63.563 21.229 73.853 25.103 73.945 13.277 63.669 8.516 63.563 21.229"/><polygon class="cls-26" points="63.377 43.655 73.692 45.961 73.784 34.116 63.483 30.919 63.377 43.655"/><polygon class="cls-27" points="80.68 43.66 89.785 45.966 90.008 13.273 80.939 8.51 80.68 43.66"/><polygon class="cls-28" points="106.766 24.309 106.784 21.349 103.71 19.714 103.747 13.519 95.709 8.773 95.655 17.192 98.959 18.9 98.95 20.373 106.766 24.309"/><polygon class="cls-29" points="117.354 24.406 123.884 28.062 123.955 13.513 117.437 8.765 117.354 24.406"/><polygon class="cls-30" points="113.299 27.735 120.114 31.158 120.13 28.062 113.317 24.407 113.299 27.735"/><polygon class="cls-31" points="109.961 31.056 117.011 34.246 117.027 31.157 109.98 27.735 109.961 31.056"/><polygon class="cls-32" points="106.566 43.938 113.858 46.225 113.924 34.246 106.642 31.056 106.566 43.938"/><polygon class="cls-33" points="131.938 34.237 137.449 37.206 137.512 22.013 132.01 17.902 131.938 34.237"/><polygon class="cls-34" points="148.367 11.794 145.193 8.486 145.182 11.668 148.356 14.822 148.266 40.496 152.635 43.027 152.722 16.215 148.368 11.667 148.367 11.794"/><polygon class="cls-35" points="145.063 43.679 149.657 45.987 149.667 43.026 145.075 40.495 145.063 43.679"/><polygon class="cls-36" points="163.605 21.216 166.894 25.098 166.901 22.009 163.613 17.896 163.605 21.216"/><polygon class="cls-37" points="178.871 28.58 181.09 31.947 181.121 13.247 178.907 8.474 178.871 28.58"/><polygon class="cls-38" points="175.81 30.242 178.244 33.493 178.247 31.947 175.813 28.58 175.81 30.242"/><polygon class="cls-39" points="163.41 43.685 166.716 45.992 166.746 34.127 163.444 30.925 163.41 43.685"/><polygon class="cls-40" points="178.844 43.689 181.067 45.997 181.087 33.493 178.868 30.242 178.844 43.689"/><polygon class="cls-41" points="324.088 16.74 316.097 20.946 316.143 28.69 324.142 25.068 324.088 16.74"/><polygon class="cls-42" points="301.78 13.214 301.949 46.038 308.879 43.728 308.682 8.426 301.78 13.214"/><polygon class="cls-43" points="284.068 20.951 289.632 16.747 289.63 16.142 294.082 12.745 294.061 8.431 288.188 13.217 288.19 13.894 284.052 17.23 284.068 20.951"/><polygon class="cls-44" points="279.959 32.088 279.973 35.681 285.232 32.589 285.216 28.725 279.959 32.088"/><polygon class="cls-45" points="288.271 32.089 288.332 46.034 294.228 43.723 294.157 28.725 288.271 32.089"/><polygon class="cls-46" points="267.854 13.223 267.961 46.027 272.313 43.717 272.189 8.439 267.854 13.223"/><polygon class="cls-47" points="241.059 8.451 238.912 13.231 238.945 34.001 241.097 30.785 241.059 8.451"/><polygon class="cls-48" points="254.205 34.003 254.214 37.36 257.522 34.396 257.512 30.786 254.205 34.003"/><polygon class="cls-49" points="238.951 37.357 238.965 46.017 241.12 43.708 241.104 34.394 238.951 37.357"/><polygon class="cls-50" points="193.575 34.514 194.762 37.466 194.776 22.006 193.591 17.89 193.575 34.514"/><polygon class="cls-51" points="52.176 43.652 63.274 45.957 73.692 45.961 63.377 43.655 52.176 43.652"/><polygon class="cls-52" points="69.472 43.657 79.361 45.963 89.785 45.966 80.68 43.66 69.472 43.657"/><polygon class="cls-53" points="94.673 43.934 102.798 46.222 113.858 46.225 106.566 43.938 94.673 43.934"/><polygon class="cls-54" points="148.266 40.496 145.075 40.495 149.667 43.026 152.635 43.027 148.266 40.496"/><polygon class="cls-55" points="120.261 43.672 126.594 45.979 149.657 45.987 145.063 43.679 120.261 43.672"/><polygon class="cls-56" points="151.897 43.681 156.011 45.989 166.716 45.992 163.41 43.685 151.897 43.681"/><polygon class="cls-57" points="167.324 43.686 170.356 45.994 181.067 45.997 178.844 43.689 167.324 43.686"/><polygon class="cls-58" points="308.879 43.728 301.949 46.038 312.714 46.042 320.46 43.731 308.879 43.728"/><polygon class="cls-59" points="267.961 46.027 278.459 46.03 283.607 43.72 272.313 43.717 267.961 46.027"/><polygon class="cls-60" points="294.228 43.723 288.332 46.034 298.544 46.037 305.215 43.727 294.228 43.723"/><polygon class="cls-61" points="241.12 43.708 238.965 46.017 264.854 46.026 268.97 43.716 241.12 43.708"/><polygon class="cls-62" points="186.502 39.38 182.452 39.38 184.421 41.99 188.187 41.991 186.502 39.38"/><polygon class="cls-63" points="210.921 41.997 214.901 41.998 215.235 39.387 210.955 39.386 210.921 41.997"/><polygon class="cls-64" points="188.182 46 210.921 46.008 210.955 43.699 186.496 43.692 188.182 46"/><path class="cls-65" d="M81.3459,9.2232l-.2581,35.15L69.88,44.37l.1016-12.7375-6.091,0-.106,12.7361-11.2009-.0033.3146-35.1315L64.0766,9.23l-.1058,12.7127,6.0877-.0008L70.16,9.2273Zm25.0277.2593-.05,8.42-3.3612.0007-.0194,3.1819-3.5854,0,.02-3.1817-3.3155.0007.0547-8.4188L84.6561,9.49,84.5442,25.122l4.0322,0-.023,3.3272H91.87l-.0224,3.32,3.3175,0-.0844,12.8786,11.8926.0036.0757-12.8816,3.3194,0,.0189-3.3208h3.3192l.0183-3.3287,4.0368,0,.0825-15.6413ZM145.6009,9.2l-24.7526.0091-.1795,35.1767,24.8018.0073.0118-3.1838,3.1912.0007.1015-28.83-3.186.001Zm-8.54,25.7516-4.7156,0,.0726-16.3356,4.7113-.0009-.0683,16.337m42.2537-25.764-26.8933.01-.1167,35.1977,11.5132.0034.034-12.76,3.911,0-.0311,12.7611,11.52.0034.024-13.447h-3.0581l.0032-1.6625h3.0579ZM167.6513,21.929l-3.6393,0,.0088-3.3205,3.6387-.0007-.0082,3.3208m141.635,22.512,11.5816.0035-.0632-10.148,15.5164.0016-.1787-25.1689-27.0526.01Zm15.2628-18.66-3.6617,0-.0519-8.3271,3.66-.0008.0536,8.3277M294.4686,9.1446l.02,4.3139-4.4672.0013.0179,4.0008-1.67,0-.0176-4.0007-4.4661.0013-.0179-4.3131-11.2719.0041L272.72,44.43l11.2945.0033-.062-14.9954h1.6706l.0163,3.8637,6.9559.0006-.0179-3.8642h1.9873l.0711,14.9984,10.9871.0033-.1892-35.2995Zm-53.0026.0195.0388,22.3341,16.415.0008.01,3.61-16.4184-.0019.0162,9.3135,27.8506.0083-.074-22.3785-16.4133.0021-.0085-3.5957,16.41-.0032-.0308-9.3Zm-30.1047.0111-24.41.009-.0059,4.3052-4.0445.0012-.0422,26.6022,4.0506.0008-.0058,4.3113,24.4584.0072V40.0989l4.28.0009-.0071-26.6186-4.274.0012Zm-7.1147,26.0537-10.2645-.0012.0159-16.6245,10.2548-.002-.0062,16.6277" transform="translate(-0.4074 -0.7133)"/><path class="cls-66" d="M309.2864,44.441l9.5691.0029-.0508-8.1474,2.0124,0-.0124-2,13.5022.0014-.1646-23.1687-25.0413.0092Zm11.549-26.9869,3.66-.0008.0536,8.3277h-2.013l.013,2-3.6616,0-.0521-8.3271,2.0125,0Z" transform="translate(-0.4074 -0.7133)"/><polygon class="cls-67" points="241.12 43.708 266.964 43.715 266.896 23.338 250.483 23.34 250.475 19.744 252.479 19.744 252.475 17.744 266.878 17.741 266.854 10.441 241.062 10.45 241.097 30.785 257.512 30.786 257.522 34.396 255.517 34.396 255.522 36.396 241.107 36.394 241.12 43.708"/><polygon class="cls-68" points="303.026 10.427 294.071 10.431 294.082 12.745 292.072 12.746 292.082 14.745 289.623 14.746 289.632 16.747 287.963 16.748 287.954 14.746 287.614 14.747 287.632 18.747 285.963 18.748 285.945 14.747 281.479 14.748 281.461 10.435 272.196 10.439 272.313 43.717 281.599 43.72 281.545 30.725 283.216 30.725 283.232 34.589 283.569 34.589 283.545 28.725 285.216 28.725 285.232 32.589 290.179 32.589 290.17 30.725 292.157 30.725 292.166 32.589 292.188 32.589 292.17 28.725 294.157 28.725 294.228 43.723 303.205 43.726 303.026 10.427"/><polygon class="cls-69" points="69.651 21.228 67.667 21.229 67.651 23.228 61.563 23.229 61.669 10.516 52.472 10.52 52.176 43.652 61.393 43.655 61.483 32.919 63.466 32.919 63.483 30.919 69.574 30.919 69.472 43.657 78.695 43.66 78.939 10.51 69.736 10.513 69.651 21.228"/><path class="cls-70" d="M209.3622,44.4115V42.0989l2,0v-2l2.28.0005-.0066-24.6183-4.2741.0013V11.1752l-22.4124.0083-.0031,2.3059-1.9973.0006-.0027,1.9994-2.0479.0007-.0389,24.6027,4.0507.0008-.0059,4.3113ZM191.998,20.6032l1.9981,0,.0019-2,10.2548-.002-.0062,16.6277-1.9993,0-.0007,2-10.2645-.0012Z" transform="translate(-0.4074 -0.7133)"/><path class="cls-71" d="M143.6008,11.2l-22.7627.0084-.1693,33.1774,22.8092.0067.0044-1.1833,1.9927.0005.0073-2.0005,1.1983,0,.0944-26.8292-3.186.001Zm-6.54,23.7516-1.9917,0-.0083,2-4.7155,0,.0725-16.3357,1.9911,0,.0089-2,4.7113-.0009Z" transform="translate(-0.4074 -0.7133)"/><polygon class="cls-72" points="105.916 17.19 103.928 17.19 103.916 19.19 102.543 19.19 102.536 20.372 100.548 20.373 100.536 22.372 96.95 22.373 96.97 19.191 93.655 19.192 93.709 10.773 84.234 10.776 84.137 24.409 88.169 24.408 88.146 27.736 91.462 27.736 91.44 31.055 94.758 31.055 94.673 43.934 104.578 43.937 104.642 33.056 106.63 33.056 106.642 31.056 107.972 31.056 107.98 29.735 109.969 29.735 109.98 27.735 111.31 27.735 111.317 26.407 113.306 26.407 113.317 24.407 115.365 24.407 115.437 10.765 105.954 10.769 105.916 17.19"/><path class="cls-73" d="M152.3042,44.3947l9.5186.0027.0285-10.7595h1.9948l.0052-2,3.9112,0-.0313,12.7611,9.5236.0028.02-11.4464H174.217l.0033-1.6625h3.0579l.0006-.3375H176.217l.0033-1.6625h1.0614l.0325-18.106-24.9.0092Zm9.7166-23.7858,1.9947,0,.0053-2,3.6386-.0007-.008,3.3208-1.9951,0-.0049,2-3.6394,0Z" transform="translate(-0.4074 -0.7133)"/></g></svg>